# xmcd
#
# Track frame offsets:
#  150
#  13679
#  27534
#  39979
#  50990
#  63960
#  82098
#  94148
#  113828
#  125145
#  138104
#  151384
#  167680
#
# Disc length: 2368 seconds
#
# Revision: 1
# Processed by: cddbd v1.5.1PL0 Copyright (c) Steve Scherf et al.
# Submitted via: Collectorz.com_Music_Collector 6.9
#
DISCID=b0093e0d
DTITLE=Bullfrog Brown - Snakes And Devils
DYEAR=2005
DGENRE=Blues
TTITLE0=The Wind Still Blows
TTITLE1=Legacy Blues
TTITLE2=Snakes Were Gettin'
TTITLE3=Night
TTITLE4=Missmeal Blues
TTITLE5=Devil Went A-Walkin'
TTITLE6=Feed The Habit
TTITLE7=I'll See You, Mr. Blues
TTITLE8=The Windows Are Shakin'
TTITLE9=Saucer Full Of Cream
TTITLE10=Whiskers
TTITLE11=Blues For Tinkle
TTITLE12=Sittin' By The Window
EXTD=
EXTT0=
EXTT1=
EXTT2=
EXTT3=
EXTT4=
EXTT5=
EXTT6=
EXTT7=
EXTT8=
EXTT9=
EXTT10=
EXTT11=
EXTT12=
PLAYORDER=
